<svg width="101" height="55" viewBox="0 0 101 55" fill="none" xmlns="http://www.w3.org/2000/svg">
<path d="M1.82422 0.792969C2.57422 0.816406 3.23047 0.828125 3.79297 0.828125C4.35547 0.804688 4.8125 0.792969 5.16406 0.792969H6.18359C6.44141 0.769531 6.75781 0.757812 7.13281 0.757812C7.46094 0.757812 7.85938 0.757812 8.32812 0.757812C8.79688 0.757812 9.33594 0.769531 9.94531 0.792969C10.1328 1.44922 10.3438 2.09375 10.5781 2.72656C10.8359 3.33594 11.0586 3.88672 11.2461 4.37891C11.4805 4.96484 11.7148 5.51563 11.9492 6.03125C12.1836 6.54687 12.4648 7.16797 12.793 7.89453C13.0742 8.50391 13.4141 9.25391 13.8125 10.1445C14.2109 11.0117 14.6797 12.0078 15.2188 13.1328C15.4766 12.4062 15.7109 11.7383 15.9219 11.1289C16.1562 10.5195 16.3555 9.99219 16.5195 9.54688C16.707 9.03125 16.8594 8.5625 16.9766 8.14062C17.0938 7.71875 17.2227 7.20313 17.3633 6.59375C17.4805 6.07813 17.6094 5.45703 17.75 4.73047C17.9141 4.00391 18.0781 3.16016 18.2422 2.19922C18.9219 2.19922 19.5312 2.19922 20.0703 2.19922C20.6094 2.19922 21.0781 2.1875 21.4766 2.16406C21.9219 2.16406 22.3203 2.15234 22.6719 2.12891C23.0469 2.12891 23.5508 2.10547 24.1836 2.05859C24.7227 2.01172 25.4375 1.97656 26.3281 1.95312C27.2422 1.90625 28.3672 1.84766 29.7031 1.77734C29.2109 2.12891 28.8125 2.48047 28.5078 2.83203C28.2266 3.16016 28.0039 3.45312 27.8398 3.71094C27.6523 4.01562 27.5352 4.30859 27.4883 4.58984C27.4414 4.82422 27.3945 5.36328 27.3477 6.20703C27.3242 7.05078 27.2891 8.05859 27.2422 9.23047C27.2188 10.3789 27.1953 11.6094 27.1719 12.9219C27.1719 14.2344 27.1836 15.4766 27.207 16.6484C27.2305 17.8203 27.2656 18.8398 27.3125 19.707C27.3828 20.5508 27.4766 21.0898 27.5938 21.3242C27.7578 21.6055 27.9805 21.9336 28.2617 22.3086C28.5195 22.6367 28.8477 23.0117 29.2461 23.4336C29.668 23.8555 30.2188 24.3242 30.8984 24.8398C29.8203 24.8867 28.918 24.9219 28.1914 24.9453C27.4883 24.9688 26.9023 24.9922 26.4336 25.0156C25.8945 25.0391 25.4609 25.0508 25.1328 25.0508C24.7812 25.0508 24.3008 25.0625 23.6914 25.0859C23.1523 25.1094 22.4375 25.1445 21.5469 25.1914C20.6562 25.2148 19.5078 25.2617 18.1016 25.332C18.4297 24.957 18.7344 24.582 19.0156 24.207C19.2969 23.832 19.5312 23.4922 19.7188 23.1875C19.9531 22.8359 20.1523 22.4961 20.3164 22.168C20.4805 21.7227 20.6094 20.9141 20.7031 19.7422C20.7969 18.7344 20.8672 17.293 20.9141 15.418C20.9609 13.5195 20.9609 10.9766 20.9141 7.78906C20.4688 8.51562 20.0703 9.24219 19.7188 9.96875C19.3906 10.6719 19.0977 11.3164 18.8398 11.9023C18.5586 12.582 18.3008 13.2383 18.0664 13.8711C17.832 14.5273 17.5859 15.2539 17.3281 16.0508C17.0938 16.7305 16.8125 17.5391 16.4844 18.4766C16.1797 19.4141 15.8281 20.4453 15.4297 21.5703L14.0938 21.6406C13.9062 20.7031 13.7188 19.8594 13.5312 19.1094C13.3438 18.3359 13.1562 17.6797 12.9688 17.1406C12.7578 16.5078 12.5469 15.9453 12.3359 15.4531C12.1016 14.9609 11.8438 14.4102 11.5625 13.8008C11.3047 13.2852 10.9883 12.6758 10.6133 11.9727C10.2617 11.2695 9.85156 10.4844 9.38281 9.61719C9.14844 12.0078 9.00781 13.9531 8.96094 15.4531C8.91406 16.9297 8.91406 18.0781 8.96094 18.8984C9.00781 19.8828 9.07812 20.5977 9.17188 21.043C9.3125 21.4414 9.53516 21.8867 9.83984 22.3789C10.0977 22.8008 10.4492 23.3047 10.8945 23.8906C11.3633 24.4531 11.9609 25.0859 12.6875 25.7891C12.1719 25.7891 11.6328 25.7891 11.0703 25.7891C10.5078 25.7891 9.99219 25.8008 9.52344 25.8242C8.96094 25.8477 8.41016 25.8594 7.87109 25.8594C7.30859 25.8828 6.65234 25.918 5.90234 25.9648C5.24609 26.0117 4.46094 26.0586 3.54688 26.1055C2.63281 26.1523 1.57812 26.2344 0.382812 26.3516C0.898438 26.0234 1.32031 25.707 1.64844 25.4023C1.97656 25.0742 2.23438 24.7812 2.42188 24.5234C2.65625 24.2188 2.83203 23.9141 2.94922 23.6094C3.01953 23.4219 3.07812 23.0117 3.125 22.3789C3.19531 21.7461 3.25391 20.9727 3.30078 20.0586C3.37109 19.1445 3.41797 18.125 3.44141 17C3.48828 15.875 3.52344 14.7383 3.54688 13.5898C3.59375 12.418 3.62891 11.2812 3.65234 10.1797C3.67578 9.05469 3.6875 8.04688 3.6875 7.15625C3.71094 6.24219 3.72266 5.48047 3.72266 4.87109C3.72266 4.26172 3.72266 3.875 3.72266 3.71094C3.65234 3.35938 3.54688 3.00781 3.40625 2.65625C3.28906 2.35156 3.10156 2.03516 2.84375 1.70703C2.58594 1.37891 2.24609 1.07422 1.82422 0.792969ZM28.9297 1.98828C30.5703 2.03516 31.9297 2.07031 33.0078 2.09375C34.1094 2.09375 35 2.09375 35.6797 2.09375H37.543H48.0195C48.0664 2.5625 48.1016 3.01953 48.125 3.46484C48.1719 3.88672 48.1953 4.26172 48.1953 4.58984C48.1953 4.98828 48.1836 5.35156 48.1602 5.67969C48.1367 6.00781 48.1016 6.35938 48.0547 6.73438C48.0078 7.0625 47.9609 7.41406 47.9141 7.78906C47.8672 8.16406 47.7852 8.55078 47.668 8.94922C47.3398 7.68359 46.8945 6.72266 46.332 6.06641C45.793 5.41016 45.2422 4.92969 44.6797 4.625C44.0234 4.27344 43.332 4.08594 42.6055 4.0625C41.6445 4.10938 40.8945 4.19141 40.3555 4.30859C39.8164 4.42578 39.3945 4.58984 39.0898 4.80078C38.7852 5.01172 38.5508 5.25781 38.3867 5.53906C38.2461 5.79688 38.0938 6.08984 37.9297 6.41797C37.7891 6.69922 37.6602 7.13281 37.543 7.71875C37.4258 8.21094 37.3086 8.87891 37.1914 9.72266C37.0977 10.5664 36.9922 11.6562 36.875 12.9922C37.5078 12.8047 38.0117 12.6289 38.3867 12.4648C38.7852 12.3008 39.1016 12.1602 39.3359 12.043C39.5938 11.9023 39.7812 11.7734 39.8984 11.6562C39.9922 11.5156 40.1328 11.2578 40.3203 10.8828C40.4609 10.5547 40.6484 10.1094 40.8828 9.54688C41.1406 8.98438 41.4453 8.21094 41.7969 7.22656C41.8438 8.30469 41.8672 9.20703 41.8672 9.93359C41.8672 10.6367 41.8789 11.2109 41.9023 11.6562C41.9023 12.1719 41.9141 12.582 41.9375 12.8867V14.2227C41.9375 14.7148 41.9375 15.3828 41.9375 16.2266C41.9609 17.0469 41.9961 18.0898 42.043 19.3555C41.7617 18.4883 41.5039 17.8086 41.2695 17.3164C41.0586 16.8008 40.8711 16.4141 40.707 16.1562C40.5195 15.8516 40.3555 15.6406 40.2148 15.5234C40.0508 15.4766 39.8281 15.4297 39.5469 15.3828C39.2891 15.3594 38.9609 15.3477 38.5625 15.3477C38.1875 15.3477 37.707 15.4062 37.1211 15.5234C37.0508 16.8125 37.0391 17.8555 37.0859 18.6523C37.1562 19.4258 37.25 20.0234 37.3672 20.4453C37.4844 20.9375 37.625 21.2891 37.7891 21.5C38 21.7109 38.4219 21.8867 39.0547 22.0273C39.6875 22.1445 40.4023 22.1914 41.1992 22.168C42.0195 22.1211 42.8516 21.9805 43.6953 21.7461C44.5391 21.5117 45.2891 21.125 45.9453 20.5859C46.4375 20.1406 46.9648 19.5781 47.5273 18.8984C47.9961 18.3125 48.5117 17.5742 49.0742 16.6836C49.6602 15.793 50.2344 14.7148 50.7969 13.4492C50.7031 14.5039 50.6328 15.3828 50.5859 16.0859C50.5625 16.7656 50.5273 17.3164 50.4805 17.7383C50.4336 18.2305 50.3984 18.6055 50.375 18.8633C50.375 19.1445 50.3398 19.543 50.2695 20.0586C50.2227 20.5039 50.1406 21.1133 50.0234 21.8867C49.9297 22.6367 49.8008 23.5977 49.6367 24.7695C48.5352 24.793 47.4922 24.8164 46.5078 24.8398C45.5234 24.8398 44.6562 24.8516 43.9062 24.875C43.0156 24.8984 42.1953 24.9219 41.4453 24.9453C40.6719 24.9453 39.8164 24.9805 38.8789 25.0508C38.0586 25.0977 37.0859 25.168 35.9609 25.2617C34.8594 25.3555 33.6406 25.4844 32.3047 25.6484C32.4219 24.0547 32.5039 22.5547 32.5508 21.1484C32.6211 19.7188 32.668 18.4648 32.6914 17.3867C32.7148 16.1211 32.7148 14.9492 32.6914 13.8711C32.8086 11.1758 32.7617 8.99609 32.5508 7.33203C32.3398 5.66797 32.0938 4.60156 31.8125 4.13281C31.6719 3.96875 31.4727 3.76953 31.2148 3.53516C31.0039 3.34766 30.7109 3.125 30.3359 2.86719C29.9609 2.60937 29.4922 2.31641 28.9297 1.98828ZM65.6328 0.617188C67.1328 0.59375 68.3633 0.863281 69.3242 1.42578C70.3086 1.98828 71.1055 2.65625 71.7148 3.42969C72.3242 4.20312 72.793 4.98828 73.1211 5.78516C73.4492 6.55859 73.707 7.16797 73.8945 7.61328C73.9414 7.73047 74.0352 7.88281 74.1758 8.07031C74.293 8.23438 74.457 8.43359 74.668 8.66797C74.9023 8.87891 75.1953 9.125 75.5469 9.40625C74.8203 9.42969 74.1758 9.45312 73.6133 9.47656C73.0508 9.47656 72.5703 9.48828 72.1719 9.51172C71.7266 9.53516 71.3281 9.55859 70.9766 9.58203C70.625 9.60547 70.1914 9.64062 69.6758 9.6875C69.207 9.73438 68.6328 9.78125 67.9531 9.82812C67.2734 9.875 66.4414 9.94531 65.457 10.0391C66.043 9.33594 66.5 8.71484 66.8281 8.17578C67.1797 7.61328 67.4375 7.12109 67.6016 6.69922C67.7891 6.25391 67.8945 5.86719 67.918 5.53906C67.9648 5.21094 67.9531 4.92969 67.8828 4.69531C67.7422 4.15625 67.3789 3.76953 66.793 3.53516C65.1055 3.06641 63.6289 3.44141 62.3633 4.66016C61.1211 5.85547 60.2305 7.82422 59.6914 10.5664C59.4336 11.9258 59.1875 13.3438 58.9531 14.8203C58.7422 16.2734 58.6602 17.6094 58.707 18.8281C58.7539 20.0234 58.9883 20.9961 59.4102 21.7461C59.832 22.4961 60.5586 22.8477 61.5898 22.8008C62.5977 22.7539 63.4531 22.5898 64.1562 22.3086C64.8594 22.0039 65.4219 21.6523 65.8438 21.2539C66.2656 20.832 66.5586 20.3867 66.7227 19.918C66.9102 19.4258 66.9805 18.9688 66.9336 18.5469C66.8398 18.2188 66.5938 17.8672 66.1953 17.4922C65.8438 17.1641 65.3164 16.8008 64.6133 16.4023C63.9102 15.9805 62.9023 15.5469 61.5898 15.1016C62.832 15.0312 63.8516 14.9844 64.6484 14.9609C65.4688 14.9141 66.1133 14.8672 66.582 14.8203C67.1445 14.7734 67.5781 14.7383 67.8828 14.7148C68.1641 14.6914 68.5742 14.668 69.1133 14.6445C69.582 14.6211 70.1797 14.6094 70.9062 14.6094C71.6562 14.6094 72.5938 14.5977 73.7188 14.5742C73.2969 14.9961 72.9688 15.3828 72.7344 15.7344C72.6172 15.9219 72.5117 16.0859 72.418 16.2266C72.3242 16.4609 72.2891 16.9414 72.3125 17.668C72.3125 18.2773 72.3594 19.1797 72.4531 20.375C72.5469 21.5469 72.7227 23.1523 72.9805 25.1914L68.3047 25.8242L68.5156 21.0781C67.9766 22.3672 67.2969 23.3281 66.4766 23.9609C65.6797 24.5938 64.918 25.0391 64.1914 25.2969C63.3242 25.6016 62.4219 25.7422 61.4844 25.7188C60.2656 25.6016 59.0469 25.3203 57.8281 24.875C56.6094 24.4297 55.5312 23.75 54.5938 22.8359C53.6562 21.8984 52.9297 20.6914 52.4141 19.2148C51.9219 17.7383 51.7695 15.9102 51.957 13.7305C52.168 11.5508 52.6836 9.65234 53.5039 8.03516C54.3477 6.39453 55.3906 5.03516 56.6328 3.95703C57.875 2.87891 59.2695 2.07031 60.8164 1.53125C62.3867 0.96875 63.9922 0.664063 65.6328 0.617188ZM80.7148 2.19922C81.8867 2.26953 82.8711 2.32812 83.668 2.375C84.4883 2.39844 85.168 2.42188 85.707 2.44531C86.3164 2.46875 86.832 2.46875 87.2539 2.44531C87.6758 2.42188 88.25 2.36328 88.9766 2.26953C89.5859 2.19922 90.3945 2.09375 91.4023 1.95312C92.4336 1.78906 93.7109 1.57813 95.2344 1.32031C94.6953 1.85938 94.2734 2.35156 93.9688 2.79688C93.6875 3.21875 93.4648 3.58203 93.3008 3.88672C93.1133 4.26172 92.9844 4.57812 92.9141 4.83594C92.8672 5.07031 92.9141 5.65625 93.0547 6.59375C93.1953 7.53125 93.3945 8.64453 93.6523 9.93359C93.9102 11.1992 94.1914 12.5586 94.4961 14.0117C94.8008 15.4414 95.1055 16.7891 95.4102 18.0547C95.7148 19.2969 95.9844 20.3633 96.2188 21.2539C96.4766 22.1211 96.6641 22.6367 96.7812 22.8008C97.1328 23.293 97.3555 23.6211 97.4492 23.7852C97.543 23.9258 97.707 24.0547 97.9414 24.1719C98.0352 24.2188 98.1875 24.2891 98.3984 24.3828C98.5859 24.4766 98.832 24.5938 99.1367 24.7344C99.4648 24.875 99.875 25.0391 100.367 25.2266C99.4531 25.2734 98.668 25.3086 98.0117 25.332C97.3555 25.332 96.8164 25.3438 96.3945 25.3672C95.9023 25.3906 95.4805 25.4141 95.1289 25.4375C94.7773 25.4375 94.3555 25.4609 93.8633 25.5078C93.4414 25.5547 92.8906 25.6016 92.2109 25.6484C91.5547 25.6953 90.7812 25.7422 89.8906 25.7891C90.3594 25.4609 90.7344 25.168 91.0156 24.9102C91.3203 24.6289 91.5547 24.3945 91.7188 24.207C91.9062 23.9727 92.0352 23.7617 92.1055 23.5742C92.1523 23.3633 92.1875 23.0469 92.2109 22.625C92.2344 22.25 92.2344 21.7578 92.2109 21.1484C92.1875 20.5156 92.1289 19.6953 92.0352 18.6875L82.7891 19.6367C82.5547 20.0352 82.3789 20.3867 82.2617 20.6914C82.1445 20.9727 82.0625 21.2188 82.0156 21.4297C81.9453 21.6875 81.9219 21.8984 81.9453 22.0625C81.9922 22.25 82.0742 22.4727 82.1914 22.7305C82.3086 22.9648 82.4727 23.2461 82.6836 23.5742C82.918 23.8789 83.2578 24.2422 83.7031 24.6641C83.1172 24.6406 82.5195 24.6289 81.9102 24.6289C81.3008 24.6289 80.7383 24.6406 80.2227 24.6641C79.6133 24.6875 79.0156 24.7109 78.4297 24.7344C77.8438 24.7578 77.1758 24.793 76.4258 24.8398C75.793 24.8867 75.0547 24.9453 74.2109 25.0156C73.3438 25.0625 72.418 25.1328 71.4336 25.2266C72.043 24.9453 72.5586 24.6641 72.9805 24.3828C73.4023 24.0781 73.7539 23.7969 74.0352 23.5391C74.3633 23.2578 74.6445 22.9883 74.8789 22.7305C75.043 22.4961 75.3711 21.957 75.8633 21.1133C76.3555 20.2461 76.9062 19.2266 77.5156 18.0547C78.1484 16.8828 78.8047 15.6289 79.4844 14.293C80.1875 12.957 80.8203 11.7031 81.3828 10.5312C81.9453 9.33594 82.4023 8.30469 82.7539 7.4375C83.1055 6.57031 83.2812 6.00781 83.2812 5.75C83.2344 5.44531 83.1172 5.10547 82.9297 4.73047C82.7656 4.40234 82.5078 4.02734 82.1562 3.60547C81.8281 3.18359 81.3477 2.71484 80.7148 2.19922ZM91.6133 16.0859C91.4727 15.2656 91.3438 14.5625 91.2266 13.9766C91.1094 13.3672 91.0156 12.8633 90.9453 12.4648C90.8516 11.9961 90.7812 11.5859 90.7344 11.2344C90.6641 10.9062 90.582 10.4844 90.4883 9.96875C90.3945 9.52344 90.2773 8.97266 90.1367 8.31641C90.0195 7.63672 89.8672 6.82812 89.6797 5.89062C88.3438 8.5625 87.3008 10.6367 86.5508 12.1133C85.8242 13.5664 85.2969 14.6328 84.9688 15.3125C84.5703 16.1094 84.3477 16.5781 84.3008 16.7188L91.6133 16.0859ZM1.47266 28.8633C2.22266 29.0508 2.9375 29.1914 3.61719 29.2852C4.29688 29.3789 4.89453 29.4492 5.41016 29.4961C6.01953 29.5664 6.58203 29.5898 7.09766 29.5664C7.75391 29.5664 8.57422 29.5078 9.55859 29.3906C10.5664 29.2734 11.5977 29.168 12.6523 29.0742C13.707 28.957 14.7148 28.8867 15.6758 28.8633C16.6602 28.8164 17.457 28.875 18.0664 29.0391C18.6758 29.1797 19.2969 29.4023 19.9297 29.707C20.5859 29.9883 21.1836 30.3516 21.7227 30.7969C22.2617 31.2188 22.707 31.7227 23.0586 32.3086C23.4102 32.8711 23.6094 33.5156 23.6562 34.2422C23.6328 35.1562 23.4219 36.0117 23.0234 36.8086C22.6953 37.4883 22.1445 38.1914 21.3711 38.918C20.5977 39.6211 19.4844 40.1602 18.0312 40.5352C18.7578 40.6289 19.3789 40.793 19.8945 41.0273C20.4336 41.2383 20.8906 41.4961 21.2656 41.8008C21.6641 42.082 21.9805 42.3984 22.2148 42.75C22.4727 43.1016 22.6719 43.4531 22.8125 43.8047C23.1641 44.625 23.3281 45.5391 23.3047 46.5469C23.1641 47.8594 22.8945 48.9023 22.4961 49.6758C22.1211 50.4492 21.6875 51.0469 21.1953 51.4688C20.7031 51.8906 20.1992 52.1836 19.6836 52.3477C19.168 52.5117 18.6992 52.6406 18.2773 52.7344C17.8555 52.8281 17.3398 52.875 16.7305 52.875C16.1211 52.875 15.4648 52.8633 14.7617 52.8398C14.082 52.793 13.3789 52.7578 12.6523 52.7344C11.9258 52.6875 11.2344 52.6875 10.5781 52.7344C10.0391 52.7812 9.38281 52.8281 8.60938 52.875C7.95312 52.9219 7.13281 52.9805 6.14844 53.0508C5.16406 53.0977 4.01562 53.1562 2.70312 53.2266C2.96094 53.0391 3.17188 52.8281 3.33594 52.5938C3.52344 52.3359 3.67578 52.1133 3.79297 51.9258C3.91016 51.6914 4.01562 51.4688 4.10938 51.2578C4.17969 51.0703 4.23828 50.5547 4.28516 49.7109C4.33203 48.8672 4.36719 47.8594 4.39062 46.6875C4.41406 45.4922 4.42578 44.2148 4.42578 42.8555C4.44922 41.4727 4.4375 40.1484 4.39062 38.8828C4.36719 37.5938 4.32031 36.457 4.25 35.4727C4.20312 34.4648 4.13281 33.7383 4.03906 33.293C3.89844 32.8008 3.71094 32.2969 3.47656 31.7812C3.28906 31.3359 3.01953 30.8555 2.66797 30.3398C2.33984 29.8242 1.94141 29.332 1.47266 28.8633ZM8.89062 32.4492C8.89062 32.543 8.90234 32.8594 8.92578 33.3984C8.94922 33.8672 8.97266 34.5938 8.99609 35.5781C9.04297 36.5391 9.10156 37.9102 9.17188 39.6914C9.75781 39.9492 10.332 40.0898 10.8945 40.1133C11.457 40.1133 11.9609 40.0898 12.4062 40.043C12.9219 39.9727 13.4141 39.8555 13.8828 39.6914C14.5156 39.4336 15.0078 39.0117 15.3594 38.4258C15.7344 37.8398 15.9805 37.2305 16.0977 36.5977C16.2383 35.9414 16.2734 35.332 16.2031 34.7695C16.1328 34.1836 15.9805 33.7617 15.7461 33.5039C15.3008 33.1055 14.75 32.7773 14.0938 32.5195C13.5312 32.3086 12.8164 32.168 11.9492 32.0977C11.1055 32.0039 10.0859 32.1211 8.89062 32.4492ZM8.71484 49.1133C9.58203 49.5586 10.3438 49.8516 11 49.9922C11.6562 50.1328 12.207 50.2031 12.6523 50.2031C13.168 50.2031 13.6133 50.1328 13.9883 49.9922C14.4336 49.7812 14.8672 49.5 15.2891 49.1484C15.7344 48.7734 16.0625 48.3398 16.2734 47.8477C16.5078 47.332 16.6016 46.7695 16.5547 46.1602C16.5078 45.5273 16.2383 44.8359 15.7461 44.0859C15.3008 43.5469 14.7617 43.125 14.1289 42.8203C13.5664 42.5625 12.8516 42.3984 11.9844 42.3281C11.1406 42.2578 10.0977 42.457 8.85547 42.9258L8.71484 49.1133ZM24.7461 29.2852C25.4492 29.4258 26.0469 29.5312 26.5391 29.6016C27.0312 29.6719 27.4414 29.7305 27.7695 29.7773C28.1445 29.8242 28.4609 29.8477 28.7188 29.8477C28.9766 29.8477 29.3281 29.8359 29.7734 29.8125C30.1719 29.7891 30.6758 29.7773 31.2852 29.7773C31.8945 29.7539 32.668 29.7188 33.6055 29.6719C33.0664 30.0469 32.6328 30.3633 32.3047 30.6211C31.9766 30.8789 31.7305 31.1016 31.5664 31.2891C31.3555 31.5 31.2266 31.6758 31.1797 31.8164C31.1328 31.9102 31.0859 32.2617 31.0391 32.8711C30.9922 33.457 30.9453 34.207 30.8984 35.1211C30.875 36.0117 30.875 37.0195 30.8984 38.1445C30.9219 39.2461 30.9805 40.3711 31.0742 41.5195C31.1914 42.668 31.3555 43.7812 31.5664 44.8594C31.7773 45.9141 32.0586 46.8398 32.4102 47.6367C32.7852 48.4336 33.2305 49.0547 33.7461 49.5C34.2852 49.9453 34.9297 50.1094 35.6797 49.9922C36.6641 49.8516 37.4609 49.3711 38.0703 48.5508C38.6797 47.7305 39.1367 46.7344 39.4414 45.5625C39.7695 44.3906 39.9688 43.1367 40.0391 41.8008C40.1328 40.4414 40.1445 39.1758 40.0742 38.0039C40.0273 36.8086 39.9336 35.7773 39.793 34.9102C39.6523 34.043 39.5234 33.5039 39.4062 33.293C39.2656 33.0586 39.0781 32.7891 38.8438 32.4844C38.6562 32.2266 38.4102 31.9336 38.1055 31.6055C37.8008 31.2539 37.4492 30.8789 37.0508 30.4805C37.7773 30.5039 38.4336 30.5273 39.0195 30.5508C39.6055 30.5508 40.0977 30.5625 40.4961 30.5859C40.9648 30.6094 41.3867 30.6328 41.7617 30.6562C42.1367 30.6797 42.6055 30.7148 43.168 30.7617C43.6367 30.8086 44.2344 30.8555 44.9609 30.9023C45.7109 30.9492 46.6016 31.0195 47.6328 31.1133C47.2344 31.207 46.9062 31.3359 46.6484 31.5C46.4141 31.6641 46.2266 31.8398 46.0859 32.0273C45.9219 32.2383 45.8047 32.4492 45.7344 32.6602C45.6641 32.8477 45.6055 33.4102 45.5586 34.3477C45.5352 35.2617 45.4883 36.375 45.418 37.6875C45.3711 38.9766 45.2891 40.3828 45.1719 41.9062C45.0547 43.4062 44.8672 44.8359 44.6094 46.1953C44.375 47.5547 44.0586 48.7617 43.6602 49.8164C43.2852 50.8711 42.793 51.5977 42.1836 51.9961C41.293 52.582 40.3555 53.0039 39.3711 53.2617C38.3867 53.4961 37.3906 53.625 36.3828 53.6484C35.375 53.6484 34.3789 53.5664 33.3945 53.4023C32.4336 53.2148 31.5078 52.9922 30.6172 52.7344C29.7031 52.4531 28.9414 51.8203 28.332 50.8359C27.7461 49.8516 27.2773 48.6914 26.9258 47.3555C26.5977 45.9961 26.3516 44.543 26.1875 42.9961C26.0469 41.4258 25.9531 39.9141 25.9062 38.4609C25.8828 37.0078 25.8828 35.6953 25.9062 34.5234C25.9531 33.3281 25.9883 32.4258 26.0117 31.8164C26.0117 31.5117 25.9648 31.2188 25.8711 30.9375C25.8008 30.6797 25.6719 30.4102 25.4844 30.1289C25.3203 29.8242 25.0742 29.543 24.7461 29.2852ZM69.8516 28.2656C69.5234 29.0156 69.2305 29.6719 68.9727 30.2344C68.7148 30.7969 68.4922 31.2773 68.3047 31.6758C68.0938 32.1211 67.918 32.5195 67.7773 32.8711C67.6602 33.1289 67.5078 33.4805 67.3203 33.9258C67.1328 34.3242 66.8984 34.8516 66.6172 35.5078C66.3594 36.1406 66.0195 36.9609 65.5977 37.9688C65.3867 37.1016 65.1289 36.3398 64.8242 35.6836C64.5195 35.0273 64.1914 34.4531 63.8398 33.9609C63.4883 33.4688 63.1133 33.0703 62.7148 32.7656C62.3398 32.4375 61.9648 32.168 61.5898 31.957C60.7227 31.4883 59.8086 31.2305 58.8477 31.1836C57.582 31.2539 56.5859 31.4648 55.8594 31.8164C55.1562 32.1445 54.6406 32.5312 54.3125 32.9766C53.9844 33.3984 53.8086 33.8438 53.7852 34.3125C53.7617 34.7578 53.8203 35.1328 53.9609 35.4375C54.0781 35.7188 54.4883 36.0469 55.1914 36.4219C55.918 36.7969 56.7852 37.2305 57.793 37.7227C58.8242 38.1914 59.9258 38.7305 61.0977 39.3398C62.2695 39.9258 63.3477 40.582 64.332 41.3086C65.3398 42.0117 66.1836 42.7852 66.8633 43.6289C67.5664 44.4492 67.9531 45.3281 68.0234 46.2656C68.0938 47.4609 68.082 48.5391 67.9883 49.5C67.8945 50.4609 67.5664 51.2812 67.0039 51.9609C66.4414 52.6406 65.5625 53.1797 64.3672 53.5781C63.1953 53.9766 61.5664 54.2227 59.4805 54.3164C57.3242 54.4102 55.5547 54.293 54.1719 53.9648C52.7891 53.6367 51.6641 53.1914 50.7969 52.6289C49.9531 52.0664 49.3203 51.4453 48.8984 50.7656C48.5 50.0859 48.207 49.4414 48.0195 48.832C47.832 48.1992 47.7031 47.6602 47.6328 47.2148C47.5625 46.7461 47.4453 46.4648 47.2812 46.3711C47.0938 46.2539 46.9062 46.1484 46.7188 46.0547C46.5547 45.9609 46.3789 45.8789 46.1914 45.8086C46.0039 45.7148 45.8164 45.6328 45.6289 45.5625L55.8594 43.9102C55.2734 44.3789 54.8164 44.8125 54.4883 45.2109C54.1836 45.6094 53.9492 45.9609 53.7852 46.2656C53.5977 46.6172 53.4688 46.9453 53.3984 47.25C53.3516 47.5781 53.457 47.9883 53.7148 48.4805C53.9727 48.9727 54.3242 49.4531 54.7695 49.9219C55.2383 50.3672 55.7773 50.7422 56.3867 51.0469C56.9961 51.3516 57.6289 51.4805 58.2852 51.4336C59.1055 51.3633 59.7734 51.1641 60.2891 50.8359C60.8047 50.4844 61.1914 50.0508 61.4492 49.5352C61.7305 49.0195 61.8945 48.457 61.9414 47.8477C61.9883 47.2383 61.9297 46.6406 61.7656 46.0547C61.625 45.4453 61.3906 44.8828 61.0625 44.3672C60.7344 43.8281 60.3477 43.3828 59.9023 43.0312C59.5039 42.75 58.8828 42.4805 58.0391 42.2227C57.2188 41.9648 56.293 41.6836 55.2617 41.3789C54.2539 41.0742 53.2109 40.7227 52.1328 40.3242C51.0781 39.9258 50.1172 39.4336 49.25 38.8477C48.4062 38.2617 47.7266 37.5703 47.2109 36.7734C46.7188 35.9766 46.5312 35.0156 46.6484 33.8906C46.7422 32.9297 47.0469 32.1328 47.5625 31.5C48.1016 30.8438 48.7695 30.3281 49.5664 29.9531C50.3867 29.5547 51.2891 29.2617 52.2734 29.0742C53.2812 28.8867 54.3008 28.7812 55.332 28.7578C56.3867 28.7109 57.418 28.7227 58.4258 28.793C59.457 28.8633 60.3828 28.9453 61.2031 29.0391C62.0234 29.1328 62.7148 29.2266 63.2773 29.3203C63.8633 29.3906 64.2266 29.4375 64.3672 29.4609C64.9766 29.5078 65.5859 29.4961 66.1953 29.4258C66.7344 29.3789 67.3203 29.2734 67.9531 29.1094C68.6094 28.9219 69.2422 28.6406 69.8516 28.2656ZM68.9727 28.3359C70.543 28.5234 71.9023 28.6641 73.0508 28.7578C74.1992 28.8281 75.1484 28.8867 75.8984 28.9336C76.7656 28.9805 77.4922 28.9922 78.0781 28.9688C78.6875 28.9453 79.5195 28.8867 80.5742 28.793C81.4648 28.7227 82.6367 28.6289 84.0898 28.5117C85.543 28.3711 87.3594 28.1836 89.5391 27.9492C89.5625 28.4883 89.5742 29.0156 89.5742 29.5312C89.5977 30.0234 89.6211 30.457 89.6445 30.832C89.668 31.2773 89.6797 31.6875 89.6797 32.0625C89.6797 32.4609 89.6562 32.9648 89.6094 33.5742C89.5625 34.0898 89.4805 34.7461 89.3633 35.543C89.2695 36.3164 89.1172 37.2422 88.9062 38.3203C88.5781 37.0547 88.2617 36.0352 87.957 35.2617C87.6523 34.4648 87.3711 33.832 87.1133 33.3633C86.832 32.8242 86.5508 32.4141 86.2695 32.1328C85.9648 31.9219 85.6016 31.7461 85.1797 31.6055C84.8047 31.4883 84.3242 31.3945 83.7383 31.3242C83.1758 31.2539 82.5078 31.2656 81.7344 31.3594C81.6172 34.4531 81.5352 36.9609 81.4883 38.8828C81.4414 40.8047 81.4062 42.3047 81.3828 43.3828C81.3594 44.6719 81.3477 45.5977 81.3477 46.1602C81.3711 46.957 81.5 47.7422 81.7344 48.5156C81.9219 49.1719 82.2266 49.8516 82.6484 50.5547C83.0703 51.2578 83.6797 51.8789 84.4766 52.418H80.1875C79.7891 52.418 79.2969 52.4414 78.7109 52.4883C78.2188 52.5352 77.5859 52.582 76.8125 52.6289C76.0625 52.6758 75.1836 52.7578 74.1758 52.875C74.5273 52.2656 74.8086 51.7148 75.0195 51.2227C75.2305 50.7305 75.3945 50.3086 75.5117 49.957C75.6523 49.5352 75.7578 49.1602 75.8281 48.832C75.8516 48.3633 75.9102 47.4141 76.0039 45.9844C76.0273 45.3984 76.0508 44.6719 76.0742 43.8047C76.1211 42.9375 76.168 41.9062 76.2148 40.7109C76.2852 39.5156 76.3438 38.1445 76.3906 36.5977C76.4609 35.0273 76.5312 33.2578 76.6016 31.2891C76.1797 31.1719 75.7812 31.1836 75.4062 31.3242C75.0312 31.4414 74.7031 31.5938 74.4219 31.7812C74.0938 32.0156 73.7773 32.2969 73.4727 32.625C73.168 33.0234 72.8281 33.5391 72.4531 34.1719C72.125 34.7109 71.75 35.4258 71.3281 36.3164C70.9062 37.1836 70.4258 38.2617 69.8867 39.5508C69.7695 38.1914 69.6875 37.0781 69.6406 36.2109C69.5938 35.3203 69.5586 34.6289 69.5352 34.1367C69.5117 33.5508 69.5 33.1172 69.5 32.8359C69.5 32.5781 69.4766 32.2383 69.4297 31.8164C69.3828 31.4648 69.3242 31.0078 69.2539 30.4453C69.1836 29.8594 69.0898 29.1562 68.9727 28.3359Z" fill="black"/>
</svg>
