<svg width="212" height="120" viewBox="0 0 212 120" fill="none" xmlns="http://www.w3.org/2000/svg">
<path d="M0 31.5V0H9V4.5H13.5V9H18V4.5H22.5V0H31.5V31.5H22.5V13.5H18V22.5H13.5V13.5H9V31.5H0ZM45 22.5H49.5V27H45V31.5H36V9H45V22.5ZM67.5 9V31.5H58.5V18H54V13.5H58.5V9H67.5ZM49.5 18H54V22.5H49.5V18ZM108 31.5V9H117V18H130.5V9H139.5V31.5H130.5V22.5H117V31.5H108ZM148.5 31.5V27H144V13.5H148.5V9H171V13.5H175.5V22.5H153V27H171V31.5H148.5ZM153 18H166.5V13.5H153V18ZM31.5 41.5V55H27V59.5H9V64H0V37H9V41.5H13.5V46H9V55H22.5V41.5H13.5V37H27V41.5H31.5ZM40.5 59.5V55H36V41.5H40.5V37H63V41.5H67.5V55H63V59.5H40.5ZM45 55H58.5V41.5H45V55ZM103.5 28V32.5H81V41.5H85.5V46H81V55H94.5V41.5H85.5V37H99V41.5H103.5V55H99V59.5H76.5V55H72V32.5H76.5V28H103.5ZM117 50.5H121.5V55H117V59.5H108V37H117V50.5ZM139.5 37V59.5H130.5V46H126V41.5H130.5V37H139.5ZM121.5 46H126V50.5H121.5V46ZM157.5 41.5V46H153V59.5H144V37H153V41.5H157.5ZM175.5 37V59.5H166.5V46H162V41.5H166.5V37H175.5ZM157.5 46H162V55H157.5V46ZM184.5 59.5V55H180V41.5H184.5V37H207V41.5H211.5V55H207V59.5H184.5ZM189 55H202.5V41.5H189V55ZM0 87.5V65H27V69.5H31.5V74H27V78.5H31.5V83H27V87.5H0ZM9 74H22.5V69.5H9V74ZM9 83H22.5V78.5H9V83ZM45 78.5H49.5V83H45V87.5H36V65H45V78.5ZM67.5 65V87.5H58.5V74H54V69.5H58.5V65H67.5ZM49.5 74H54V78.5H49.5V74ZM108 87.5V65H117V74H130.5V65H139.5V87.5H130.5V78.5H117V87.5H108ZM148.5 87.5V83H144V69.5H148.5V65H171V69.5H175.5V78.5H153V83H171V87.5H148.5ZM153 74H166.5V69.5H153V74ZM4.5 115.5V93H31.5V102H27V97.5H13.5V115.5H4.5ZM67.5 97.5V111H63V115.5H45V120H36V93H45V97.5H49.5V102H45V111H58.5V97.5H49.5V93H63V97.5H67.5ZM76.5 115.5V111H72V106.5H76.5V102H94.5V97.5H76.5V93H99V97.5H103.5V115.5H76.5ZM81 111H94.5V106.5H81V111ZM112.5 115.5V111H108V97.5H112.5V93H135V97.5H139.5V102H130.5V97.5H117V102H126V106.5H117V111H130.5V106.5H139.5V111H135V115.5H112.5ZM157.5 115.5V97.5H148.5V93H175.5V97.5H166.5V115.5H157.5ZM184.5 115.5V111H180V97.5H184.5V93H207V97.5H211.5V106.5H189V111H207V115.5H184.5ZM189 102H202.5V97.5H189V102Z" fill="black"/>
</svg>
