<svg width="440" height="115" viewBox="0 0 440 115" fill="none" xmlns="http://www.w3.org/2000/svg">
<path d="M0 56V0H48V8H16V24H48V32H56V48H48V56H0ZM16 48H40V32H16V48ZM72 64V56H104V48H72V40H64V16H80V40H104V16H120V56H112V64H72ZM136 56V48H128V24H136V16H176V24H184V32H168V24H144V48H168V40H184V48H176V56H136ZM216 56V24H200V16H248V24H232V56H216ZM32 75H40V83H48V91H56V107H40V91H16V107H0V67H16V83H32V75ZM56 67V75H40V67H56ZM72 107V99H64V75H72V67H112V75H120V99H112V107H72ZM80 99H104V75H80V99ZM128 107V67H144V83H168V67H184V107H168V91H144V107H128ZM216 107V75H200V67H248V75H232V107H216ZM264 107V99H256V75H264V67H304V75H312V99H304V107H264ZM272 99H296V75H272V99ZM376 75V99H368V107H336V115H320V67H336V75H344V83H336V99H360V75H344V67H368V75H376ZM392 107V99H384V91H392V83H424V75H392V67H432V75H440V107H392ZM400 99H424V91H400V99Z" fill="black"/>
</svg>
